<svg xmlns="http://www.w3.org/2000/svg" xmlns:xlink="http://www.w3.org/1999/xlink" viewBox="0 0 2789.09 2794.61"><defs><style>.cls-1{fill:url(#linear-gradient);}.cls-2{fill:#bdd0fb;}.cls-3{fill:#7d97f4;}.cls-4{fill:#91b3fa;}.cls-5{fill:url(#linear-gradient-2);}.cls-6{fill:#008a1b;}.cls-7{fill:#3f67f9;opacity:0.5;}.cls-12,.cls-8{fill:#fff;}.cls-8{opacity:0.73;}.cls-9{fill:url(#linear-gradient-3);}.cls-10{fill:url(#linear-gradient-4);}.cls-11{fill:url(#linear-gradient-5);}.cls-13{fill:url(#linear-gradient-6);}.cls-14{fill:url(#linear-gradient-7);}.cls-15{fill:url(#linear-gradient-8);}.cls-16{fill:url(#linear-gradient-9);}.cls-17{fill:url(#linear-gradient-10);}.cls-18{fill:url(#linear-gradient-11);}.cls-19{fill:url(#linear-gradient-12);}.cls-20{fill:url(#linear-gradient-13);}.cls-21{fill:url(#linear-gradient-14);}.cls-22{fill:url(#linear-gradient-15);}.cls-23{fill:url(#linear-gradient-16);}.cls-24{fill:url(#linear-gradient-17);}.cls-25{fill:url(#linear-gradient-18);}.cls-26{fill:url(#linear-gradient-19);}.cls-27{fill:url(#linear-gradient-20);}.cls-28{fill:url(#linear-gradient-21);}.cls-29{fill:url(#linear-gradient-22);}.cls-30{fill:url(#linear-gradient-23);}.cls-31{fill:url(#linear-gradient-24);}.cls-32{fill:url(#linear-gradient-25);}.cls-33{fill:url(#linear-gradient-26);}.cls-34{fill:url(#linear-gradient-27);}.cls-35{fill:url(#linear-gradient-28);}.cls-36{fill:url(#linear-gradient-29);}.cls-37{fill:url(#linear-gradient-30);}.cls-38{opacity:0.8;}.cls-39{fill:url(#linear-gradient-31);}</style><linearGradient id="linear-gradient" x1="3129.13" y1="3605" x2="653.64" y2="530.6" gradientUnits="userSpaceOnUse"><stop offset="0" stop-color="#dae3fe"/><stop offset="1" stop-color="#e9effd"/></linearGradient><linearGradient id="linear-gradient-2" x1="917.72" y1="-227.41" x2="931.16" y2="2662.01" gradientUnits="userSpaceOnUse"><stop offset="0" stop-color="#09005d"/><stop offset="1" stop-color="#1a0f91"/></linearGradient><linearGradient id="linear-gradient-3" x1="319.57" y1="842.53" x2="1479.19" y2="842.53" gradientUnits="userSpaceOnUse"><stop offset="0" stop-color="#4f52ff"/><stop offset="1" stop-color="#4042e2"/></linearGradient><linearGradient id="linear-gradient-4" x1="1374.51" y1="928.9" x2="1547.24" y2="928.9" xlink:href="#linear-gradient-3"/><linearGradient id="linear-gradient-5" x1="2763.87" y1="1108.7" x2="4006.99" y2="-20.19" xlink:href="#linear-gradient-3"/><linearGradient id="linear-gradient-6" x1="1119.9" y1="2860.49" x2="1180.38" y2="1449.38" xlink:href="#linear-gradient-2"/><linearGradient id="linear-gradient-7" x1="2367.46" y1="2913.96" x2="2427.93" y2="1502.85" xlink:href="#linear-gradient-2"/><linearGradient id="linear-gradient-8" x1="1649.76" y1="25.83" x2="1488.49" y2="590.27" gradientUnits="userSpaceOnUse"><stop offset="0" stop-color="#ff928e"/><stop offset="1" stop-color="#fe7062"/></linearGradient><linearGradient id="linear-gradient-9" x1="300.46" y1="-8659.29" x2="139.19" y2="-8094.85" gradientTransform="matrix(-1, 0, 0, 1, -300.53, 0)" xlink:href="#linear-gradient-8"/><linearGradient id="linear-gradient-10" x1="1769.56" y1="1696.55" x2="1756.12" y2="2583.53" xlink:href="#linear-gradient-8"/><linearGradient id="linear-gradient-11" x1="1698.39" y1="3165.21" x2="1805.9" y2="2009.44" gradientUnits="userSpaceOnUse"><stop offset="0" stop-color="#e1473d"/><stop offset="1" stop-color="#e9605a"/></linearGradient><linearGradient id="linear-gradient-12" x1="1282.66" y1="2899.37" x2="2304.03" y2="1528.58" xlink:href="#linear-gradient-11"/><linearGradient id="linear-gradient-13" x1="4178.81" y1="2657.79" x2="3622.46" y2="3262.94" gradientTransform="translate(-3363.65)" xlink:href="#linear-gradient-2"/><linearGradient id="linear-gradient-14" x1="3995.55" y1="2706.61" x2="4048.85" y2="2706.61" gradientTransform="translate(-3363.65)" gradientUnits="userSpaceOnUse"><stop offset="0" stop-color="#febbba"/><stop offset="1" stop-color="#ff928e"/></linearGradient><linearGradient id="linear-gradient-15" x1="2551.6" y1="5747.4" x2="2161.87" y2="6701.57" gradientTransform="translate(-3363.65)" xlink:href="#linear-gradient-3"/><linearGradient id="linear-gradient-16" x1="4039.01" y1="2548.82" x2="3485.71" y2="3150.65" gradientTransform="translate(-3363.65)" xlink:href="#linear-gradient-2"/><linearGradient id="linear-gradient-17" x1="3803.49" y1="2703.88" x2="3849.51" y2="2703.88" xlink:href="#linear-gradient-14"/><linearGradient id="linear-gradient-18" x1="2427.94" y1="5696.88" x2="2038.2" y2="6651.07" gradientTransform="translate(-3363.65)" xlink:href="#linear-gradient-3"/><linearGradient id="linear-gradient-19" x1="1436.59" y1="-3248.01" x2="1833.04" y2="-2488.7" gradientTransform="translate(-3363.65)" xlink:href="#linear-gradient-8"/><linearGradient id="linear-gradient-20" x1="-390.75" y1="999.1" x2="-296.72" y2="1267.74" gradientTransform="matrix(-1, 0, 0, 1, 690.72, 0)" xlink:href="#linear-gradient-14"/><linearGradient id="linear-gradient-21" x1="-471.11" y1="1027.23" x2="-377.09" y2="1295.87" gradientTransform="matrix(-1, 0, 0, 1, 690.72, 0)" xlink:href="#linear-gradient-14"/><linearGradient id="linear-gradient-22" x1="-398.88" y1="1198.86" x2="-469.71" y2="1055.99" gradientTransform="matrix(-1, 0, 0, 1, 690.72, 0)" xlink:href="#linear-gradient-14"/><linearGradient id="linear-gradient-23" x1="1260.88" y1="-3156.27" x2="1657.33" y2="-2396.95" gradientTransform="translate(-3363.65)" xlink:href="#linear-gradient-8"/><linearGradient id="linear-gradient-24" x1="3619.1" y1="1701.95" x2="3963.64" y2="1701.95" xlink:href="#linear-gradient-14"/><linearGradient id="linear-gradient-25" x1="4067.88" y1="1456.99" x2="4257.33" y2="2246.37" gradientTransform="translate(-3363.65)" xlink:href="#linear-gradient-2"/><linearGradient id="linear-gradient-26" x1="3938.06" y1="1665.82" x2="4045.4" y2="1665.82" xlink:href="#linear-gradient-14"/><linearGradient id="linear-gradient-27" x1="3883.66" y1="1333.61" x2="4019.88" y2="1333.61" xlink:href="#linear-gradient-14"/><linearGradient id="linear-gradient-28" x1="-2586.5" y1="1005.31" x2="-2637.4" y2="837.42" gradientTransform="matrix(0.75, -0.67, 0.67, 0.75, 1948.71, -1225.36)" xlink:href="#linear-gradient-14"/><linearGradient id="linear-gradient-29" x1="569.65" y1="975.37" x2="621.55" y2="1271.37" xlink:href="#linear-gradient-2"/><linearGradient id="linear-gradient-30" x1="-2638.53" y1="1004.53" x2="-2684.33" y2="853.47" gradientTransform="matrix(0.75, -0.67, 0.67, 0.75, 1948.71, -1225.36)" xlink:href="#linear-gradient-14"/><linearGradient id="linear-gradient-31" x1="660.96" y1="1106.46" x2="680.12" y2="1106.46" xlink:href="#linear-gradient"/></defs><title>Recurso 2</title><g id="Capa_2" data-name="Capa 2"><g id="Illustration"><path class="cls-1" d="M2448.11,2392.57c-56.86,59.86-110.66,98.46-153.17,129-499.67,358.52-1090.9,254-1216.56,228.49-185.55-37.69-544.22-110.53-803.53-415.48-392.32-461.35-331.23-1188.2-26.92-1668,55.66-87.76,349.69-574.88,947.29-653,361.67-47.27,783.25,48.08,1088.55,303.86C2924.62,854.29,2879,1938.94,2448.11,2392.57Z"/><path class="cls-2" d="M2375.24,205.78l142.67,344.3A322.51,322.51,0,0,1,2501.44,831l-289.3,517.23a322.49,322.49,0,0,0-39.09,192.87l32.19,291.15a322.52,322.52,0,0,1-117.53,286h0c-135.4,109.69-333.44,92-447.25-40L1460,1869.05a322.5,322.5,0,0,1-44.94-353.41l189.14-383a322.65,322.65,0,0,0,33-157.72l-26.06-562a322.52,322.52,0,0,1,183.21-306l144-68.75C2105.1-41.4,2304.5,35.09,2375.24,205.78Z"/><path class="cls-3" d="M1820.32,2245.63c-25.31-451.18,43-908.77,104.75-1213.19,37-182.18,74.28-324.22,99.07-411.29,16.5-58,28.77-96.22,36.15-118.11,16-47.49,19.26-49.55,24.15-52.66A16.48,16.48,0,0,1,2106,474.81c-23.13,44-300.08,925.28-252.75,1769a16.47,16.47,0,1,1-32.89,1.85Zm281.8-1767.44,0,0Zm.06,0h0Z"/><path class="cls-4" d="M2051.34,1660.54A207.54,207.54,0,0,0,2141,1473.19c-6.06-79.07,6.34-167.42,39.58-255.11C2267.8,988,2465.55,849.55,2622.25,909s213,294.11,125.78,524.24a638.93,638.93,0,0,1-62.19,122.87c-36.63,56.07-44.13,126.3-19,188.39a261.85,261.85,0,0,1-191.94,355,205.39,205.39,0,0,0-126.23,80.23c-86.5,118.5-217.24,176.86-328.68,134.61-142.82-54.14-199.85-253-127.38-444.18C1927.15,1779,1984.89,1706.05,2051.34,1660.54Z"/><path class="cls-3" d="M1882.28,2575.79a10.12,10.12,0,0,0,10.45-3.24c130-154.34,261.84-442.25,349.49-656.6,94.81-231.85,159.88-430,160.52-432a10.12,10.12,0,1,0-19.23-6.3c-2.58,7.87-260.27,789.9-506.26,1081.83a10.14,10.14,0,0,0,5,16.28Z"/><path class="cls-5" d="M99.72,130.67C89.59,539.12,56.75,1948,72.43,2447.28a100.23,100.23,0,0,0,96.95,97.08c261.6,8.56,1014.15,30.26,1442,12.31a168.79,168.79,0,0,0,161.84-165.11c8.9-428.72,28.51-1634.55-18.11-2186.94a137.75,137.75,0,0,0-123.63-125.5C1346.63,50.62,590-19,220.28,4.94A129.09,129.09,0,0,0,99.72,130.67Z"/><path class="cls-6" d="M206,257.58C191.72,592.1,146.66,1705,161,2116.47a116.44,116.44,0,0,0,109.58,112.3c247.37,14.47,881.87,46.4,1244.71,17.34a130.87,130.87,0,0,0,120.13-123.52c18.39-341.28,71.18-1377.51,57.47-1784.41a128.65,128.65,0,0,0-117.16-123.73c-267.62-24-955-81.2-1263.29-64.38A112.5,112.5,0,0,0,206,257.58Z"/><path class="cls-7" d="M746.23,76.31h0a23.51,23.51,0,0,0,22.28,23.52c61.79,3.24,235.85,12.4,313.64,16.91a23.54,23.54,0,0,0,24.47-28l-.5-2.58a23.52,23.52,0,0,0-21-19C1032.58,62.37,873.92,49,768.79,52.76A23.49,23.49,0,0,0,746.23,76.31Z"/><path class="cls-8" d="M1697.14,899.17H1392.73a30.17,30.17,0,0,1-30.17-30c-1.12-272.24-2.1-638.87-.28-673.71-.09,1.84-56.17-3.73-56.17-3.73-.9,17.77.35-7.23-.06,29.86-.24,21.05-.4,51.28-.48,89.85-.15,64.57-.1,153.71.16,265,.44,189.22,1.31,379.53,1.32,381.43l.1,21a36.63,36.63,0,0,0,36.64,36.46h63.46a20,20,0,0,1,20,20v346.23a41.38,41.38,0,0,1-41.37,41.38H1227.51a42.21,42.21,0,0,1-39.7-27.88l-122-338.06a49.25,49.25,0,0,0-46.33-32.53H871.88A19.42,19.42,0,0,1,853,1000.62l188.59-828.34-77.82-5.06L784.06,977.13a60.28,60.28,0,0,1-58.84,47.22H670.56a36.31,36.31,0,0,1-36.33-36.41c.2-73.47.46-180.47.62-287.09.18-111.21.21-200.26.12-264.66-.2-128.43,4.21-277,2.19-285.4,0,0-36.77-.5-36.8-1.19,1.34,25.94,4.62,543.83,4.12,840.73a34.07,34.07,0,0,1-34.07,34H519a43.84,43.84,0,0,1-43.46-38.09C443.39,743,366.24,160.34,364.1,147c-35.36.83-67.68,2.71-84.65,9.88,0,0,85.41,642.76,124.8,940.86h0a49.12,49.12,0,0,0,48.7,42.68H682.38a28.5,28.5,0,0,1,26.3,39.47L547.5,1566.21a60,60,0,0,1-55.4,36.92H161.56l-1.88,116.09H509.75a71.84,71.84,0,0,0,66.3-44.17l208.1-498.75A58.3,58.3,0,0,1,838,1140.44H994.84a44.51,44.51,0,0,1,41.87,29.41l80.74,223.69a21.86,21.86,0,0,1-20.56,29.28h-224a20,20,0,0,0-20,20v807.46h29.73V1522.61a38,38,0,0,1,38-38h192.94a52.35,52.35,0,0,1,49.23,34.57l240.09,665.18,44.72-69.64-217.26-601.92a21,21,0,0,1,19.8-28.19H1455.8a38.65,38.65,0,0,0,38.65-38.65V1049.24a34,34,0,0,1,34-34h168.72Z"/><path class="cls-9" d="M1462.31,1470.51h-286.2a16.88,16.88,0,0,1-15.77-10.86l-142.93-374.73h-573a16.87,16.87,0,0,1-16.74-14.72L319.71,233.59a16.88,16.88,0,1,1,33.48-4.32l106,821.89H1029a16.88,16.88,0,0,1,15.77,10.87l142.93,374.72h257.69V961.11a16.88,16.88,0,0,1,33.76,0v492.52A16.87,16.87,0,0,1,1462.31,1470.51Z"/><circle class="cls-10" cx="1460.88" cy="928.9" r="86.37"/><rect class="cls-11" x="2283.75" y="297.73" width="92.96" height="2409.52"/><rect class="cls-12" x="1919.5" y="152.14" width="796.27" height="796.27" rx="188.02"/><rect class="cls-6" x="1959.82" y="192.45" width="712.28" height="712.28" rx="147.59"/><path class="cls-12" d="M2153.37,329.36C2184.91,324,2229.2,320,2291.6,320c63.08,0,108,12.08,138.24,36.23,28.86,22.82,48.32,60.4,48.32,104.69s-14.76,81.87-41.61,107.37c-34.89,32.88-86.56,47.64-147,47.64a258.08,258.08,0,0,1-34.9-2V775.62H2153.37ZM2254.69,534.7c8.73,2,19.47,2.69,34.23,2.69,54.36,0,87.91-27.51,87.91-73.82,0-41.6-28.86-66.43-79.86-66.43-20.8,0-34.89,2-42.28,4Z"/><rect class="cls-13" x="1022.44" y="2336" width="221.75" height="423.33" rx="90.67"/><rect class="cls-14" x="2272.28" y="2336" width="221.75" height="423.33" rx="90.67"/><path class="cls-15" d="M1142.85,1972.81c-2.72-.6-6.18-3-6.18-5.8v-18.63c0-18-8.59-34.38-24.62-42.46a73.91,73.91,0,0,0-65.23-1l-36.58,18c-18.4,8.6-28.12,27.07-28.12,47.37v14.21c0,26.15,17.67,48.28,43.58,51.81L1183.64,2058l18.46-72.31Z"/><path class="cls-16" d="M2381.74,1972.81a6,6,0,0,0,4.77-5.8v-18.63a47.45,47.45,0,0,1,26-42.46,75.42,75.42,0,0,1,65.93-1l40.56,18c18.4,8.6,32.11,27.07,32.11,47.37v14.21c0,26.15-21.3,48.28-47.21,51.81L2344.16,2058l-20.07-72.31Z"/><path class="cls-17" d="M2497.62,2132.68c-23-77.58-141.76-149.46-141.76-149.46s-99.6-305.74-206.88-305.74H1375.57c-107.28,0-206.88,305.74-206.88,305.74s-118.77,71.81-141.76,149.4c-16.8,56.72,19.63,275.56,40.44,388.14,7.34,39.69,44.79,70.58,88.53,70.58H2368.65c43.74,0,81.19-30.86,88.53-70.55C2478,2408.21,2514.42,2189.41,2497.62,2132.68Z"/><path class="cls-18" d="M2482.7,2457.51c-6.69-7.65-16.88-14-27.67-14H1069.52c-10.72,0-20.86,6.3-27.55,13.87a31.34,31.34,0,0,0-6.82,27.85l22.67,92.43c3.65,14.5,17.92,27.12,34.38,27.12h1339c16.32,0,30.5-12,34.29-26.31l23.81-92C2491.82,2477,2489.38,2465.16,2482.7,2457.51Z"/><path class="cls-2" d="M1388.07,2318.81s-34.48-103.44-77.9-112.38-227.31-47.25-231.14-15.32-40.87,141.75,69,152S1405.77,2361.7,1388.07,2318.81Z"/><path class="cls-2" d="M2136.48,2318.81s34.48-103.44,77.9-112.38,227.31-47.25,231.14-15.32,40.87,141.75-69,152S2118.78,2361.7,2136.48,2318.81Z"/><path class="cls-19" d="M2111.71,2228.9c-3.57-5.5-9.67-10.49-16.22-10.49H1429.07c-6.79,0-13.08,5.23-16.58,11.05a21,21,0,0,0-.51,19.87l37.49,72.49c13.91,26.23,41.18,44.42,70.88,44.42H2010c31.67,0,60.38-20,73.27-48.92l29.87-68.49C2115.82,2242.84,2115.28,2234.39,2111.71,2228.9Z"/><path class="cls-3" d="M2293.18,2008.87c-4.33,6.59-11.68,11.31-19.61,11.31H1251c-8,0-15.48-4.83-19.77-11.62a24.13,24.13,0,0,1-1.38-22.93c23.22-48.92,66.78-139.67,91.18-190.36a60,60,0,0,1,3.72-6.72,65.15,65.15,0,0,1,55-30.43H2153a65.15,65.15,0,0,1,55.28,30.72,67.88,67.88,0,0,1,4.41,8.41L2295,1986.31A24.08,24.08,0,0,1,2293.18,2008.87Z"/><path class="cls-4" d="M2208.32,1788.84c-54.17,10.69-213.35,37.34-453.45,37.34-242.09,0-384.15-27.2-430.16-37.73a65,65,0,0,1,55-30.33H2153A65.15,65.15,0,0,1,2208.32,1788.84Z"/><path class="cls-12" d="M1371.6,2178.1a3.83,3.83,0,0,1-2.64-1l-132.54-125.43a3.83,3.83,0,0,1,5.26-5.57l132.55,125.43a3.83,3.83,0,0,1-2.63,6.62Z"/><path class="cls-12" d="M2143.2,2178.1a3.83,3.83,0,0,1-2.64-6.62l132.55-125.43a3.83,3.83,0,0,1,5.27,5.57l-132.55,125.43A3.83,3.83,0,0,1,2143.2,2178.1Z"/><path class="cls-12" d="M2091.15,1523.13c18.84-15.77,90.32-135.64,204.7,0,12.37,6.46,44.37-11.63,40.3-24.3-133.85-195.22-300.54-12-284.19,8.09S2069.24,1541.47,2091.15,1523.13Z"/><path class="cls-12" d="M2416.88,1441.83c25-2.93,48.44-20,41.42-41.79-6.91-21.51-245.15-299.82-510.5,13.91a18.9,18.9,0,0,0,2.33,26.75c12.08,10.07,22.37,16.82,35.73,15.18C2228.67,1180.55,2391.92,1444.76,2416.88,1441.83Z"/><path class="cls-12" d="M2540.9,1358.69c17.73,3.55,54-9.78,44.62-38.92-419.35-456.26-792.8,22-779.1,41.25s41.48,20,52.66,13.5C2193,946.25,2523.17,1355.14,2540.9,1358.69Z"/><path class="cls-12" d="M2247.28,1592.82a55.55,55.55,0,1,1-55.55-55.54A55.56,55.56,0,0,1,2247.28,1592.82Z"/><path class="cls-20" d="M829.76,2786.73l-163.84-75.29L637,2706.76s-6.21,35.17-9.25,70Z"/><path class="cls-21" d="M631.9,2686.09l5,42.07s28.7,13.36,48.3-1.68l-11.89-46.89Z"/><path class="cls-22" d="M635.66,1895.09c-2.16,11-11.58,548.29,45.86,789.08a8.17,8.17,0,0,1-4.8,9.5,142.4,142.4,0,0,1-46.77,9.51,14.08,14.08,0,0,1-14-10.1c-16.41-55.87-95.08-335.77-105.35-603.15-11.46-298.78,0-10.18,0-10.18l6.73-184.68Z"/><path class="cls-23" d="M514.15,2794.61c-2.09-17.22-8.6-45.48-28.73-67.5l-36.89-2s-9.89,17.75-19.47,64.94Z"/><path class="cls-24" d="M439.84,2671l11.67,63.63s11.53,8.58,34.34,2.36l-5.56-68.46Z"/><path class="cls-25" d="M408.33,1911.58c-47,283.49,10.19,700.66,29.47,782.31a12.73,12.73,0,0,0,10.28,9.67c8.61,1.43,22.77,2.59,36.74-1.47a11.67,11.67,0,0,0,8.39-10.74c2.59-66-2.07-471.27,41.7-631.42a36.4,36.4,0,0,1,14-20.07l84.95-60.4,6.52-97.62Z"/><path class="cls-26" d="M707.65,1374.43c-140.77-2.33-296.1,37-296.1,37-42,244.84-7.33,527.24-7.33,527.24,109,28.58,231.91-17.47,231.91-17.47,18.12-102.34,102.63-390.35,102.63-390.35,68.78-8.53,125.44-28.38,172.1-54.61-35.6-41.26-52.37-93.75-59.66-124.78C801.43,1366.88,751.06,1375.15,707.65,1374.43Z"/><path class="cls-27" d="M1123.45,1167.08c-13.82-16.7-31.33-8.8-31.33-8.8-20.71,87.51-129.33,158.46-240.92,193.14,7.29,31,24.06,83.52,59.66,124.78C1096.05,1372.07,1123.45,1167.08,1123.45,1167.08Z"/><path class="cls-28" d="M1120.1,1171.33c1.44,4.6-15.31,11.6-25.18-7.21-.34-9-5.83-47.64-.44-55,28.7-39.12,84.33-88.16,84.33-88.16,9.4,9.28,1.66,18.39,1.66,18.39l-27,28.12c5.64,10.2,12.53,18.81,15.76,31.15a37.83,37.83,0,0,1-3.77,27.83c-4.74,8.54-11.2,19.63-17.32,28.31C1136.59,1171.21,1120.1,1171.33,1120.1,1171.33Z"/><path class="cls-29" d="M1141.67,1085.72l-24.59,20.85-7.72,20.75,21.93,24.33s7.37-41.19,12.85-50.1S1146.78,1088.32,1141.67,1085.72Z"/><path class="cls-30" d="M465.55,1547.7l-54-136.31S280.07,1500.73,258.44,1614c24.85,1.83,70.06,8.29,114.31,30.64C382.47,1591.15,465.55,1547.7,465.55,1547.7Z"/><path class="cls-31" d="M580.45,1676S432.83,1759.39,383,1688.15c-10.34-14.8-12.81-29.5-10.26-43.51-44.25-22.35-89.46-28.81-114.31-30.64-6.52,34.15-3.07,70.47,17,107.18,87.25,159.6,324.55-8.82,324.55-8.82Z"/><path class="cls-32" d="M562.71,1781.51l80.57-281.37a8.23,8.23,0,0,1,6.94-5.91c14.6-1.7,56.9-6.48,105.74-10.61,58.82-5,127.14-9,168-5.58a8.24,8.24,0,0,1,6.73,11.85c-23.21,47-118.7,238-166.52,300.59a8.24,8.24,0,0,1-6.64,3.26L570.55,1792A8.23,8.23,0,0,1,562.71,1781.51Z"/><path class="cls-33" d="M582.18,1713.53s-11.22-46.15-6.7-62.52,13.3-37.43,42.54-32.75,63.73,17,63.73,17-1.75,21.33-24,14.45l13.78,10.66s-2,17.08-20.74,8l12.82,14.14s-8.06,14-21.87,5S621.34,1719.09,582.18,1713.53Z"/><path class="cls-34" d="M565.06,1260.15l-44.79,129.53a4.68,4.68,0,0,0,2.12,5.62c12.21,6.75,56.2,26.26,109.21-7.35a22,22,0,0,0,10.12-15.7l14.51-112.1Z"/><path class="cls-35" d="M662.52,1140.2s49.18,92.58,42.88,130-67.27,34.71-120.5,4.34l-37.19-100Z"/><path class="cls-36" d="M631.22,1062.47c-53.73,30.84-105.54,51.84-117.26,77.73s-12.33,40.07-3.7,47.47,0,63.42,47.49,82.34h0a19.24,19.24,0,0,0,26-21.59l-4.35-22.31s1.84,2.51,8.69,2.08-4.68-16.43-7.58-23-13.1-23.08,3.33-23.47,86.78-10.25,103.83-37.39S685,1031.63,631.22,1062.47Z"/><path class="cls-37" d="M592.86,1231.18s-35-24-37.58-3.8,31.54,29.31,48.43,21.77Z"/><g class="cls-38"><path class="cls-39" d="M668.57,1143.26a1.8,1.8,0,0,1-1.21-.45,1.85,1.85,0,0,1-.2-2.6c1-1.17,24.09-29-5.82-67.56a1.85,1.85,0,1,1,2.93-2.27c31.81,41,6,71.93,5.7,72.24A1.86,1.86,0,0,1,668.57,1143.26Z"/></g></g></g></svg>